<mxfile host="app.diagrams.net" modified="2024-02-24T22:10:34.621Z" agent="Mozilla/5.0 (Windows NT 10.0; Win64; x64) AppleWebKit/537.36 (KHTML, like Gecko) Chrome/121.0.0.0 Safari/537.36" version="23.1.6" etag="Q7I8xs10VHPVpSjal4K4" type="github">
  <diagram name="Page-1" id="ikFubgnYJ3UxSLEQyxm0">
    <mxGraphModel>
      <root>
        <mxCell id="0" />
        <mxCell id="1" parent="0" />
      </root>
    </mxGraphModel>
  </diagram>
</mxfile>
